<svg width="20" height="20" viewBox="0 0 20 20" fill="none" xmlns="http://www.w3.org/2000/svg">
<g clip-path="url(#clip0_4_414)">
<path d="M10 19.9999C15.5228 19.9999 20 15.5227 20 9.99988C20 4.47703 15.5228 -0.00012207 10 -0.00012207C4.47715 -0.00012207 0 4.47703 0 9.99988C0 15.5227 4.47715 19.9999 10 19.9999Z" fill="#4176FA"/>
<path d="M13.5855 8.26063C10.6972 8.26063 10.6934 11.1381 10.6934 11.1529C10.6934 11.1529 10.4956 14.0339 13.5855 14.0339C13.5855 14.0339 16.1625 14.1804 16.1625 12.0289H14.8392C14.8392 12.0289 14.8831 12.8389 13.6296 12.8389C13.6296 12.8389 12.3063 12.9269 12.3063 11.5303H16.2065C16.2065 11.5303 16.6354 8.26063 13.5855 8.26063ZM12.2915 10.5222C12.2915 10.5222 12.4529 9.36388 13.6149 9.36388C14.7806 9.36388 14.7622 10.5222 14.7622 10.5222H12.2915ZM8.98554 9.7819C8.98554 9.7819 10.1328 9.69758 10.1328 8.34869C10.1328 7.00354 9.19446 6.34363 8.00315 6.34363H4.08447V13.8762H8.0028C8.0028 13.8762 10.3965 13.9496 10.3965 11.6513C10.3965 11.6513 10.4993 9.7819 8.98554 9.7819ZM5.81109 7.68146H8.00297C8.00297 7.68146 8.53454 7.68146 8.53454 8.46581C8.53454 9.25015 8.22295 9.36388 7.86732 9.36388H5.81109V7.68146ZM7.89317 12.5383H5.81109V10.5222H8.00297C8.00297 10.5222 8.79855 10.5149 8.7948 11.5595C8.7948 12.4394 8.20476 12.531 7.89317 12.5383ZM11.9653 6.78714V7.71462H15.0738V6.78714H11.9653Z" fill="#F1F2F2"/>
</g>
<defs>
<clipPath id="clip0_4_414">
<rect width="20" height="20" fill="white"/>
</clipPath>
</defs>
</svg>
