<svg width="20" height="20" viewBox="0 0 20 20" fill="none" xmlns="http://www.w3.org/2000/svg">
<g clip-path="url(#clip0_4_409)">
<path d="M10 19.9999C15.5228 19.9999 20 15.5227 20 9.99988C20 4.47703 15.5228 -0.00012207 10 -0.00012207C4.47715 -0.00012207 0 4.47703 0 9.99988C0 15.5227 4.47715 19.9999 10 19.9999Z" fill="#F26798"/>
<path d="M9.99883 3.64917C6.49264 3.64917 3.64014 6.49829 3.64014 10C3.64014 13.5018 6.49264 16.3507 9.99883 16.3507C13.5052 16.3507 16.3579 13.5019 16.3579 10C16.3579 6.49829 13.5052 3.64917 9.99883 3.64917ZM14.1831 6.6466C14.9085 7.54557 15.3493 8.6809 15.3696 9.91802C15.1282 9.86847 14.1061 9.67791 12.8847 9.67791C12.4905 9.67791 12.0757 9.6977 11.6599 9.74903C11.6247 9.66365 11.5896 9.57862 11.5527 9.4927C11.4449 9.23903 11.3286 8.98733 11.2083 8.73937C13.0882 7.96483 13.9951 6.88993 14.1831 6.6466ZM9.99883 4.64332C11.3538 4.64332 12.5923 5.14673 13.5384 5.97581C13.3886 6.1801 12.5765 7.19529 10.7637 7.88016C9.92467 6.34642 9.00628 5.07632 8.78774 4.78147C9.17723 4.69128 9.58259 4.64332 9.99883 4.64332ZM7.69126 5.16384C7.87647 5.41893 8.79629 6.70258 9.65693 8.22402C7.34722 8.83118 5.29617 8.87075 4.80114 8.87075H4.74855C5.10418 7.23183 6.21153 5.86993 7.69126 5.16384ZM4.62662 10.0084C4.62662 9.96419 4.62734 9.91998 4.62876 9.87595C4.66085 9.87631 4.70827 9.87631 4.76977 9.87631C5.43646 9.87631 7.75062 9.82123 10.1354 9.11354C10.2801 9.39661 10.4179 9.68397 10.5461 9.97115C10.4858 9.98844 10.4265 10.0057 10.3675 10.025C7.68235 10.8922 6.20654 13.188 5.97944 13.5633C5.13805 12.6153 4.62662 11.3707 4.62662 10.0084ZM9.99883 15.3731C8.7667 15.3731 7.62958 14.9558 6.72224 14.2561C6.87572 13.9552 7.98967 11.9496 10.9322 10.9255C10.934 10.9248 10.9359 10.9241 10.9381 10.9236C11.6759 12.8445 11.9884 14.4567 12.0741 14.9564C11.4356 15.2248 10.7343 15.3731 9.99883 15.3731ZM13.0417 14.4275C12.9697 14.0141 12.6802 12.5031 12.0121 10.6603C12.3868 10.602 12.7513 10.579 13.0932 10.579C14.2161 10.579 15.0944 10.8248 15.2985 10.8872C15.0559 12.3506 14.2181 13.6169 13.0417 14.4275Z" fill="#F1F2F2"/>
</g>
<defs>
<clipPath id="clip0_4_409">
<rect width="20" height="20" fill="white"/>
</clipPath>
</defs>
</svg>
