<svg width="20" height="20" viewBox="0 0 20 20" fill="none" xmlns="http://www.w3.org/2000/svg">
<g clip-path="url(#clip0_4_425)">
<path d="M10.0001 19.9999C15.523 19.9999 20.0001 15.5227 20.0001 9.99988C20.0001 4.47703 15.523 -0.00012207 10.0001 -0.00012207C4.47727 -0.00012207 0.00012207 4.47703 0.00012207 9.99988C0.00012207 15.5227 4.47727 19.9999 10.0001 19.9999Z" fill="#3B5998"/>
<path d="M12.5145 10.3918H10.7301V16.9289H8.02663V10.3918H6.74084V8.09435H8.02663V6.60766C8.02663 5.54453 8.53164 3.87976 10.7542 3.87976L12.7567 3.88814V6.11816H11.3038C11.0654 6.11816 10.7303 6.23724 10.7303 6.74439V8.09649H12.7507L12.5145 10.3918Z" fill="white"/>
</g>
<defs>
<clipPath id="clip0_4_425">
<rect width="20" height="20" fill="white"/>
</clipPath>
</defs>
</svg>
