<svg width="20" height="20" viewBox="0 0 20 20" fill="none" xmlns="http://www.w3.org/2000/svg">
<g clip-path="url(#clip0_4_420)">
<path d="M10 19.999C15.5228 19.999 20 15.5219 20 9.99902C20 4.47618 15.5228 -0.000976562 10 -0.000976562C4.47715 -0.000976562 0 4.47618 0 9.99902C0 15.5219 4.47715 19.999 10 19.999Z" fill="#007AB9"/>
<path d="M15.974 10.8041V14.9269H13.5837V11.0804C13.5837 10.1146 13.2386 9.45505 12.3732 9.45505C11.7127 9.45505 11.3204 9.8991 11.1471 10.3291C11.0842 10.4827 11.0679 10.6961 11.0679 10.9116V14.9267H8.67748C8.67748 14.9267 8.70957 8.41206 8.67748 7.7377H11.0681V8.75645C11.0633 8.76448 11.0565 8.77232 11.0523 8.77998H11.0681V8.75645C11.3858 8.26767 11.9523 7.56889 13.2224 7.56889C14.795 7.56889 15.974 8.59638 15.974 10.8041ZM6.17685 4.27234C5.35918 4.27234 4.82422 4.80908 4.82422 5.51427C4.82422 6.20449 5.34367 6.75674 6.14548 6.75674H6.16099C6.99471 6.75674 7.51309 6.20449 7.51309 5.51427C7.49722 4.80908 6.99471 4.27234 6.17685 4.27234ZM4.96629 14.9269H7.35586V7.7377H4.96629V14.9269Z" fill="#F1F2F2"/>
</g>
<defs>
<clipPath id="clip0_4_420">
<rect width="20" height="20" fill="white"/>
</clipPath>
</defs>
</svg>
